<svg viewBox="0 0 833 637">
    <g id="right-cactus">
        <g id="right-body">
            <path d="M565.5,459.5s13-112,13-136-27-37-44-37-44,13-44,37,13,136,13,136Z" fill="#29ea90"/>
            <path d="M546,288s14,14,19,29-11,142-11,142h11s19-126.33,12-145S546,288,546,288Z" fill="#22b562"/>
            <path d="M565.5,459.5s13-112,13-136-27-37-44-37-44,13-44,37,13,136,13,136Z" fill="none" stroke="#000" stroke-miterlimit="10" stroke-width="6"/>
            <line x1="535" y1="285" x2="535" y2="276" fill="none" stroke="#000" stroke-linecap="round" stroke-linejoin="round" stroke-width="6"/>
            <line x1="572" y1="303" x2="579" y2="297" fill="none" stroke="#000" stroke-linecap="round" stroke-linejoin="round" stroke-width="6"/>
            <line x1="579" y1="331" x2="589" y2="331" fill="none" stroke="#000" stroke-linecap="round" stroke-linejoin="round" stroke-width="6"/>
            <line x1="569.28" y1="407" x2="576.91" y2="407" fill="none" stroke="#000" stroke-linecap="round" stroke-linejoin="round" stroke-width="6"/>
            <line x1="497" y1="303" x2="490" y2="297" fill="none" stroke="#000" stroke-linecap="round" stroke-linejoin="round" stroke-width="6"/>
            <line x1="490" y1="331" x2="480" y2="331" fill="none" stroke="#000" stroke-linecap="round" stroke-linejoin="round" stroke-width="6"/>
            <line x1="499.72" y1="407" x2="492.09" y2="407" fill="none" stroke="#000" stroke-linecap="round" stroke-linejoin="round" stroke-width="6"/>
            <line x1="573.53" y1="369" x2="582.09" y2="369" fill="none" stroke="#000" stroke-linecap="round" stroke-linejoin="round" stroke-width="6"/>
            <line x1="495.47" y1="369" x2="486.91" y2="369" fill="none" stroke="#000" stroke-linecap="round" stroke-linejoin="round" stroke-width="6"/>
            <g id="right-eyes">
                <circle cx="516" cy="348" r="4"/>
                <circle cx="556" cy="348" r="4"/>
            </g>
        </g>
        <g id="right-pot">
            <polygon points="555 497 546 534 567 534 577 497 555 497" fill="#ffdf54"/>
            <polygon points="574 505 496 505 494 497 575.5 497 574 505" fill="#ffdf54"/>
            <polygon points="554.5 500.13 553.05 505 574 505 576 497 554.5 500.13" fill="#e2af13"/>
            <path d="M574.07,497l-9.61,34H506.54l-9.61-34h77.14m7.93-6H489l13,46h67l13-46Z"/>
            <rect x="485.5" y="457.5" width="100.5" height="39.5" rx="3.75" fill="#fff"/>
            <path d="M554.5,457.5h27.75a3.75,3.75,0,0,1,3.75,3.75v32a3.75,3.75,0,0,1-3.75,3.75H554.5a0,0,0,0,1,0,0V457.5A0,0,0,0,1,554.5,457.5Z" fill="#ffdf54"/>
            <rect x="485.5" y="457.5" width="100.5" height="39.5" rx="3.75" fill="none" stroke="#000" stroke-miterlimit="10" stroke-width="6"/>
        </g>
    </g>
    <g id="left-cactus">
        <g id="left-body">
            <path d="M305.5,459.5s13-42,13-66-27-37-44-37-44,13-44,37,13,66,13,66Z" fill="#29ea90"/>
            <path d="M286,360s15,10,20,25-12,74-12,74h11s19-57.67,12-76.33S286,360,286,360Z" fill="#22b562"/>
            <path d="M305.5,459.5s13-42,13-66-27-37-44-37-44,13-44,37,13,66,13,66Z" fill="none" stroke="#000" stroke-miterlimit="10" stroke-width="6"/>
            <line x1="275" y1="356" x2="275" y2="347" fill="none" stroke="#000" stroke-linecap="round" stroke-linejoin="round" stroke-width="6"/>
            <line x1="312" y1="374" x2="319" y2="368" fill="none" stroke="#000" stroke-linecap="round" stroke-linejoin="round" stroke-width="6"/>
            <line x1="319" y1="402" x2="329" y2="402" fill="none" stroke="#000" stroke-linecap="round" stroke-linejoin="round" stroke-width="6"/>
            <line x1="311" y1="440" x2="319" y2="440" fill="none" stroke="#000" stroke-linecap="round" stroke-linejoin="round" stroke-width="6"/>
            <line x1="237" y1="374" x2="230" y2="368" fill="none" stroke="#000" stroke-linecap="round" stroke-linejoin="round" stroke-width="6"/>
            <line x1="230" y1="402" x2="220" y2="402" fill="none" stroke="#000" stroke-linecap="round" stroke-linejoin="round" stroke-width="6"/>
            <line x1="238" y1="440" x2="230" y2="440" fill="none" stroke="#000" stroke-linecap="round" stroke-linejoin="round" stroke-width="6"/>
            <g id="left-eyes">
                <circle cx="256" cy="408" r="4"/>
                <circle cx="296" cy="408" r="4"/>
            </g>
            <circle id="left-mouth" cx="275" cy="438" r="7"/>
        </g>
        <g id="left-pot">
            <polygon points="295 497 286 534 307 534 317 497 295 497" fill="#ffdf54"/>
            <polygon points="314 505 236 505 234 497 315.5 497 314 505" fill="#ffdf54"/>
            <polygon points="294.5 500.13 293.05 505 314 505 316 497 294.5 500.13" fill="#e2af13"/>
            <path d="M314.07,497l-9.61,34H246.54l-9.61-34h77.14m7.93-6H229l13,46h67l13-46Z"/>
            <rect x="225.5" y="457.5" width="100.5" height="39.5" rx="3.75" fill="#fff"/>
            <path d="M294.5,457.5h27.75a3.75,3.75,0,0,1,3.75,3.75v32a3.75,3.75,0,0,1-3.75,3.75H294.5a0,0,0,0,1,0,0V457.5A0,0,0,0,1,294.5,457.5Z" fill="#ffdf54"/>
            <rect x="225.5" y="457.5" width="100.5" height="39.5" rx="3.75" fill="none" stroke="#000" stroke-miterlimit="10" stroke-width="6"/>
        </g>
    </g>
    <line id="line" x1="159" y1="534" x2="651" y2="534" fill="none" stroke="#000" stroke-linecap="round" stroke-miterlimit="10" stroke-width="6"/>
</svg>
